<?xml version="1.0" encoding="utf-8"?>
<!-- Generator: Adobe Illustrator 17.0.0, SVG Export Plug-In . SVG Version: 6.00 Build 0)  -->
<!DOCTYPE svg PUBLIC "-//W3C//DTD SVG 1.1//EN" "http://www.w3.org/Graphics/SVG/1.1/DTD/svg11.dtd">
<svg version="1.1" id="Layer_1" xmlns="http://www.w3.org/2000/svg" xmlns:xlink="http://www.w3.org/1999/xlink" x="0px" y="0px"
	 width="1000px" height="1000px" viewBox="0 0 1000 1000" enable-background="new 0 0 1000 1000" xml:space="preserve">
<g>
	<polygon fill="#9DC23C" points="574.987,572.392 578.007,569.647 580.451,564.525 582.073,560.84 583.474,556.266 584.359,549.285 
		584.984,540.676 584.984,533.542 584.956,529.243 584.463,520.126 584.101,513.432 583.687,506.131 583.016,494.689 
		582.327,483.852 581.405,470.884 580.771,461.948 580.169,453.948 579.452,444.754 578.491,432.451 577.535,421.893 
		576.567,411.909 575.302,399.202 574.406,393.836 574.062,389.838 572.889,381.411 570.644,365.661 568.66,351.565 
		568.128,348.069 567.312,342.748 566.082,336.771 564.949,331.396 562.775,321.069 561.22,313.574 559.706,306.537 
		558.612,302.254 557.495,298.523 556.675,295.624 555.483,292.211 553.846,287.934 552.097,283.545 550.03,278.491 
		548.098,273.867 545.103,266.861 541.287,258.278 539.447,254.38 536.867,249.441 534.433,244.838 531.153,239.141 
		526.943,232.403 523.84,227.711 520.383,222.975 518.074,219.893 515.23,216.093 510.567,209.945 507.337,205.86 503.712,201.227 
		498.666,194.836 494.242,189.543 487.424,181.49 481.212,174.311 475.524,168.151 465.768,157.793 456.021,147.599 
		448.549,139.946 437.644,129.278 427.059,119.412 417.691,111.162 412.239,106.465 406.898,101.924 401.809,97.649 394.196,91.349 
		384.934,83.872 380.243,80.196 377.148,77.928 371.587,74.061 365.472,69.83 357.302,64.202 349.914,59.212 342.968,54.681 
		336.35,50.508 329.262,46.136 316.631,38.449 309.877,34.323 304.037,30.973 296.915,27.192 292.9,25.439 288.312,23.755 
		283.373,22.261 278.76,21.13 274.39,20.279 266.19,19.247 257.877,18.962 253.237,19.148 248.605,19.568 242.876,20.431 
		238.291,21.402 230.789,23.56 225.222,25.647 220.225,27.891 217.534,29.288 214.335,31.222 210.367,34.137 205.924,38.016 
		203.769,40.062 201.583,42.264 199.386,44.632 196.243,48.337 193.32,52.197 190.636,56.186 187.962,60.716 185.564,65.405 
		183.437,70.239 180.509,78.465 178.676,85.114 177.864,88.844 177.259,92.914 176.749,98.475 176.524,103.884 176.524,109.728 
		177.314,116.058 178.507,124.579 180.215,136.221 181.345,143.744 183.055,155.262 184.272,162.821 186.239,172.634 
		188.357,182.693 191.28,196.638 192.626,202.622 193.859,207.227 195.989,214.588 198.837,224.64 201.489,233.723 206.335,248.327 
		210.177,259.511 216.359,276.404 220.404,286.717 223.132,293.447 226.527,301.203 231.362,312.081 236.544,323.571 
		241.235,333.524 246.692,344.633 250.531,352.126 256.542,363.083 261.028,371.055 265.538,378.843 271.319,388.579 
		275.996,395.805 281.985,404.092 287.727,411.348 292.355,416.813 295.02,419.821 300.362,425.566 308.306,433.522 
		314.468,439.568 320.322,445.159 324.289,448.638 329.431,452.71 336.789,457.937 345.523,463.823 353.167,468.99 359.561,473.325 
		365.218,477.06 370.045,479.85 377.636,484.275 386.017,489.125 394.685,494.213 401.556,498.241 410.645,503.571 425.708,511.763 
		440.15,519.584 452.678,525.897 467.713,533.473 480.53,539.815 491.107,544.961 504.062,550.811 507.113,552.312 512.184,554.805 
		518.187,557.756 523.913,560.571 532.572,564.74 538.667,566.829 546.611,569.552 552.081,571.444 555.518,572.64 559.306,573.383 
		562.394,573.7 566.348,573.7 569.185,573.52 570.56,573.337 	"/>
	<polygon fill="#738D3A" points="613.269,579.84 619.379,579.966 625.439,579.721 628.514,579.032 633.208,577.943 643.299,575.106 
		650.719,572.202 659.269,569.485 664.794,567.755 678.018,563.521 691.394,559.041 709.894,552.655 713.999,551.222 
		720.201,548.806 728.025,545.678 735.728,542.542 739.719,540.921 744.702,538.946 749.005,537.08 752.912,535.276 
		757.181,533.238 759.935,531.925 765.424,529.282 770.37,526.798 773.33,525.221 776.892,523.157 780.617,520.616 783.803,518.281 
		788.612,514.747 793.289,511.243 797.643,507.8 801.505,504.505 805.948,500.51 810.014,496.402 816.126,489.545 820.016,484.795 
		823.546,480.389 827.57,475.16 832.786,468.262 839.328,459.234 844.31,451.697 848.135,445.732 852.118,439.476 855.677,433.804 
		858.418,429.286 862.688,421.829 865.273,417.211 868.169,411.649 871.721,404.66 874.737,398.647 879.347,388.972 
		881.639,384.005 883.553,379.63 885.505,374.753 887.854,368.396 889.694,363.591 891.878,357.698 893.83,352.107 895.829,345.67 
		898.133,338.386 900.533,330.708 901.978,325.937 902.935,321.887 903.689,316.873 904.018,311.45 903.884,306.636 
		903.505,302.835 902.873,299.047 901.529,293.579 899.502,288.211 897.703,284.28 895.099,279.798 891.616,274.876 887.86,270.82 
		886.614,269.669 885.156,268.613 882.613,266.883 879.545,264.868 876.175,263.078 873.454,261.75 870.727,260.64 869.012,260.068 
		865.743,259.037 862.049,258.125 859.409,257.625 856.597,257.402 849.722,257.126 844.479,257.092 839.531,257.947 
		837.338,258.391 831.895,260.041 825.1,262.699 813.213,267.539 807.682,269.826 798.126,274.017 784.734,280.487 779.592,282.919 
		777.563,284.016 774.728,285.627 772.29,287.031 769.401,288.718 766.868,290.209 765.328,290.991 761.883,293.004 
		757.964,295.418 751.21,299.69 742.824,305.082 736.955,309.145 730.102,314.078 723.198,319.13 716.719,324.181 709.554,329.752 
		705.113,333.333 699.845,337.857 694.836,342.276 688.721,347.879 685.101,351.301 679.648,356.508 675.513,360.618 
		672.988,363.267 669.589,366.998 666.777,370.326 663.891,374.249 660.136,379.508 656.779,384.546 653.597,389.727 
		650.556,394.945 648.589,398.288 646.462,401.957 644.309,406.627 642.804,410.277 641.195,414.9 639.06,420.847 636.898,426.81 
		635,432.058 632.949,438.979 631.611,443.329 630.006,448.983 628.015,455.685 626.254,461.749 624.263,468.689 622.201,477.329 
		619.36,489.639 615.858,504.75 613.181,517.246 610.665,529.394 609.112,538.109 607.458,545.218 607.132,547.214 606.441,552.223 
		605.617,559.763 605.286,565.258 605.286,569.555 606.179,572.768 607.121,574.861 608.323,577.123 609.824,578.318 
		611.299,579.095 	"/>
	<polygon fill="#738D3A" points="565.15,599.171 561.637,596.755 556.706,594.182 552.039,592.728 546.129,591.775 541.338,590.779 
		538.286,590.119 531.675,589.248 523.351,588.344 514.665,587.443 507.193,586.765 502.195,586.356 494.589,585.393 
		489.705,584.775 482.552,584.202 471.876,583.378 460.369,582.683 450.162,581.995 437.939,581.26 434.747,580.973 
		429.434,580.722 421.868,580.602 411.468,580.464 401.928,580.479 385.683,580.473 375.456,580.569 372.699,580.71 
		365.217,581.138 354.747,581.746 345.727,582.611 342.765,583.023 338.868,583.708 331.434,585.475 324.793,587.107 
		318.219,588.744 311.563,590.533 307.956,591.648 300.453,594.15 294.607,596.276 287.903,599.171 284.646,600.74 280.311,602.906 
		275.12,605.59 266.774,610.114 262.061,612.824 255.545,616.483 249.753,619.987 243.619,623.771 236.2,628.388 231.028,631.733 
		225.379,635.673 222.539,637.645 216.622,641.752 211.036,645.707 204.567,650.403 199.274,654.319 192.316,659.567 
		187.348,663.408 181.671,668.018 173.178,675.21 164.372,682.73 154.986,691.255 146.943,698.841 138.473,707.49 128.371,718.264 
		122.22,724.932 115.601,732.688 109.527,739.904 105.241,744.984 102.585,748.157 99.237,752.214 95.66,756.727 92.444,761.258 
		88.9,767.534 87.103,771.378 84.989,776.878 83.564,781.356 82.331,786.207 81.38,792.484 80.987,797.921 81.042,805.831 
		81.65,811.884 83.072,818.609 85.442,826.1 87.656,830.865 90.004,834.432 94.329,840.438 99.135,845.79 104.976,851.207 
		110.807,855.61 116.495,859.095 122.049,861.846 128.011,864.181 132.763,865.635 138.719,867.004 143.499,867.768 
		148.296,868.006 159.208,868.294 170.381,868.284 178.804,868.294 190.324,868.178 197.891,867.813 206.487,867.309 
		218.934,866.55 224.776,866.136 227.381,865.761 234.252,864.873 242.774,863.752 251.456,862.455 259.982,861.015 
		268.851,859.472 276.819,857.983 285.558,856.042 295.487,853.645 307.564,850.553 316.065,848.287 331.211,844.05 
		339.438,841.396 350.642,837.62 358.23,834.953 364.246,832.643 370.581,830.254 375.613,828.192 387.204,823.238 392.83,820.55 
		400.696,816.214 410.707,809.889 421.204,802.509 432.709,793.788 438.489,788.923 444.24,783.422 448.781,778.69 457.964,768.697 
		463.63,762.347 471.852,752.337 485.588,735.273 491.55,727.839 497.132,720.68 500.62,715.856 504,711.174 508.048,705.569 
		512.171,699.747 516.517,693.704 523.221,684.36 531.948,670.96 539.779,660.161 544.5,653.651 546.969,649.805 551.814,642.262 
		555.96,635.805 559.73,629.668 562.062,625.737 563.979,622.432 565.492,618.928 566.606,615.256 567.887,610.065 568.401,607.063 
		568.277,604.547 567.221,601.66 	"/>
	<polygon fill="#9DC23C" points="592.465,622.64 589.904,623.8 586.859,625.72 585.318,626.936 583.437,628.901 580.265,632.808 
		576.304,638.305 572.987,643.313 569.62,648.64 565.561,655.098 561.62,661.37 557.875,667.406 554.714,672.691 551.161,678.672 
		547.68,684.458 545.012,689.012 542.31,693.632 540.448,696.953 537.866,701.74 534.303,708.546 530.582,715.585 527.339,721.82 
		524.615,727.691 522.23,733.15 519.926,738.269 517.438,744.577 516.259,747.967 515.051,752.607 513.301,759.813 512.969,761.343 
		512.034,765.914 511.323,769.742 510.602,774.555 510.004,779.783 509.789,784.255 509.802,790.531 509.965,796.944 510.138,801.7 
		510.499,809.867 511.067,816.316 511.891,824.925 512.952,832.991 513.556,837.742 514.286,842.09 514.621,845.15 515.35,848.895 
		515.879,851.728 516.841,857.226 517.668,861.651 518.924,866.656 520.29,872.668 521.381,877.619 522.487,881.432 523.63,885.496 
		525.007,890.549 527.075,897.047 528.744,901.506 530.307,906.055 532.512,912.137 534.605,917.609 536.553,922.19 
		537.516,924.315 538.788,927.297 540.028,930.411 541.54,934.002 543.781,938.859 545.525,942.242 547.821,945.984 
		551.127,949.906 553.607,952.477 555.715,954.5 558.871,957.163 563.406,959.956 565.594,961.1 569.026,962.652 571.41,963.558 
		576.455,964.995 579.816,965.566 583.452,965.784 588.848,965.324 592.465,964.671 599.067,962.725 604.135,960.465 
		610.102,956.763 615.112,952.581 618.504,949.082 620.292,946.889 622.904,942.934 625.037,939.128 628.687,932.103 
		633.048,923.576 635.903,917.834 639.062,910.687 642.383,903.196 645.898,894.423 649.836,883.193 653.84,870.349 
		655.848,863.312 658.588,852.544 660.845,842.347 662.578,833.996 664.035,825.876 665.36,816.916 666.591,807.111 
		667.594,795.858 667.722,793.622 667.907,788.037 667.907,781.161 666.517,769.603 664.254,756.148 662.987,751.063 
		660.044,742.369 652.591,723.254 643.712,703.803 640.807,697.562 636.98,690.153 632.369,681.156 627.417,671.769 
		623.014,663.604 617.986,654.31 612.24,644.076 607.874,636.619 602.907,629.351 599.126,625.663 596.195,623.723 593.594,622.432 
			"/>
	<polygon fill="#738D3A" points="615.549,604.942 617.414,603.162 619.135,601.929 621.185,600.843 623.242,600.053 626.458,599.27 
		633.62,597.995 649.629,596.165 662.516,594.888 670.189,594.211 684.367,593.058 693.926,592.631 700.427,592.353 
		709.453,592.403 719.776,592.653 727.002,592.955 729.671,593.212 732.8,593.707 738.657,594.906 744.984,596.479 752.409,598.711 
		759.316,601.517 766.361,604.942 774.947,609.583 783.974,615.031 792.397,620.559 802.79,627.887 812.923,635.666 
		820.131,641.609 826.907,647.804 833.647,654.389 836.716,657.554 840.568,661.646 845.088,666.683 848.274,670.436 
		852.183,675.054 854.755,678.138 857.395,681.797 858.643,683.959 860.269,687.487 861.492,690.916 862.451,694.764 
		863.061,699.853 863.103,704.151 862.46,708.436 861.878,711.101 860.452,715.368 858.133,719.613 855.89,722.601 852.76,725.843 
		849.96,728.162 846.301,730.592 842.799,732.412 838.856,733.957 835.104,734.974 831.767,735.517 825.914,735.723 815.6,735.723 
		807.262,735.679 803.739,735.723 797.879,735.424 791.612,734.926 784.921,734.197 776.046,732.974 764.889,731.06 
		754.437,728.852 744.91,726.412 734.723,723.657 726.72,721.032 718.456,718.073 708.457,714.154 702.008,710.944 694.87,706.555 
		691.09,704.021 685.145,699.721 681.794,697.012 677.454,692.831 672.857,688.057 665.066,679.344 654.901,667.173 
		644.341,653.264 636.952,643.161 628.177,630.875 623.378,623.93 618.56,616.176 616.195,611.103 615.549,608.318 	"/>
</g>
</svg>
